<svg width="24" height="24" viewBox="0 0 24 24" fill="none" xmlns="http://www.w3.org/2000/svg">
<path d="M14 16.5H20V18.5H14V16.5Z" fill="black"/>
<path d="M14 13.5H20V15.5H14V13.5Z" fill="black"/>
<path d="M4 6.54001H10V8.54001H4V6.54001Z" fill="black"/>
<path d="M22 -3.8147e-06H2C0.900004 -3.8147e-06 3.8147e-06 0.899996 3.8147e-06 2V22C3.8147e-06 23.1 0.900004 24 2 24H22C23.1 24 24 23.1 24 22V2C24 0.899996 23.1 -3.8147e-06 22 -3.8147e-06ZM22 22H2V2H22V22Z" fill="black"/>
<path d="M7 20H9V17H12V15H9V12H7V15H4V17H7V20Z" fill="black"/>
<path d="M14.88 11.08L17 8.94L19.12 11.08L20.54 9.66L18.42 7.54L20.54 5.42L19.12 4L17 6.12L14.88 4L13.46 5.42L15.58 7.54L13.46 9.66L14.88 11.08Z" fill="black"/>
</svg>
