<svg width="25" height="25" viewBox="0 0 25 25" fill="none" xmlns="http://www.w3.org/2000/svg">
<path d="M12.5 3.75C14.1042 3.75 15.4167 5.0625 15.4167 6.66667C15.4167 8.27083 14.1042 9.58333 12.5 9.58333C10.8959 9.58333 9.58337 8.27083 9.58337 6.66667C9.58337 5.0625 10.8959 3.75 12.5 3.75ZM12.5 18.3333C16.4375 18.3333 20.9584 20.2146 21.25 21.25H3.75004C4.08546 20.2 8.57712 18.3333 12.5 18.3333ZM12.5 0.833332C9.27712 0.833332 6.66671 3.44375 6.66671 6.66667C6.66671 9.88958 9.27712 12.5 12.5 12.5C15.723 12.5 18.3334 9.88958 18.3334 6.66667C18.3334 3.44375 15.723 0.833332 12.5 0.833332ZM12.5 15.4167C8.60629 15.4167 0.833374 17.3708 0.833374 21.25V24.1667H24.1667V21.25C24.1667 17.3708 16.3938 15.4167 12.5 15.4167Z" fill="black"/>
</svg>
