<svg width="26" height="26" viewBox="0 0 26 26" fill="none" xmlns="http://www.w3.org/2000/svg">
<path d="M23 3V18H7.99999V3H23ZM23 0.499998H7.99999C6.62499 0.499998 5.49999 1.625 5.49999 3V18C5.49999 19.375 6.62499 20.5 7.99999 20.5H23C24.375 20.5 25.5 19.375 25.5 18V3C25.5 1.625 24.375 0.499998 23 0.499998ZM13.5875 15.5L9.24999 11.125L11 9.3625L13.5875 11.9625L20 5.5L21.75 7.2625L13.5875 15.5ZM2.99998 5.5H0.499985V23C0.499985 24.375 1.62498 25.5 2.99998 25.5H20.5V23H2.99998V5.5Z" fill="black"/>
</svg>
